<svg enable-background="new 0 0 103.6 52.5" viewBox="0 0 103.6 52.5" xmlns="http://www.w3.org/2000/svg"><path d="m75.5 20.7v-4c-.4 0-.6-.3-.6-.7v-1h-46v2.9h2.9c1 0 1.8.8 1.8 1.8v1.9c.6.1 1.2.2 1.7.4l1-1.8c.4-.9 1.5-1.2 2.4-.7l3.8 2.2c.9.5 1.2 1.6.7 2.5l-1 1.7c.4.4.8.8 1.2 1.2l1.8-1c.4-.3.9-.3 1.2-.3.5.1.9.4 1.1.8l2.2 3.8c.3.5.3.9.2 1.4s-.4.9-.8 1.1l-1.7 1c.2.6.4 1.1.5 1.7h2.1c.5 0 1 .2 1.3.5.3.4.5.8.5 1.3v4.4c0 1-.8 1.8-1.8 1.8h-2c-.1.6-.2 1.2-.4 1.7l1.8 1v.1h25.5v-8.4c0-.4.3-.7.6-.7v-4.2l-3.8 3.7c-.4.4-1.1.4-1.4 0l-.2-.2c-.3-.3-.4-.6-.2-1 .1-.2 0-.5-.2-.7-.1-.2-.3-.2-.5-.2-.1 0-.1 0-.2 0-.4.1-.8 0-1-.2l-.2-.2c-.3-.3-.3-.6-.2-1 .1-.2 0-.5-.2-.7s-.5-.2-.7-.2c-.4.1-.8 0-1-.2l-.1-.2c-.2-.2-.3-.4-.3-.7s.1-.5.3-.7zm-8.1 18.7-5.8 1.5 1.4-5.9z" fill="#02c54c"/><path d="m29.9 27c-.3 0-.7 0-1 0v19.3h12.3l-.2-.1c1.1-2 1.7-4.2 1.7-6.4 0-7.1-5.7-12.8-12.8-12.8z" fill="#02c54c"/><g fill="#181818"><path d="m61.9 33.5-2 8.1c-.1.2 0 .5.2.7.1.1.3.2.5.2h.2l8.2-2c.2-.1.4-.2.5-.5.1-.2 0-.5-.2-.7l-6.2-6.1c-.2-.2-.4-.2-.7-.2-.2.2-.4.2-.5.5zm1.1 1.5 4.4 4.4-5.8 1.5z"/><path d="m61.9 33.5-2 8.1c-.1.2 0 .5.2.7.1.1.3.2.5.2h.2l8.2-2c.2-.1.4-.2.5-.5.1-.2 0-.5-.2-.7l-6.2-6.1c-.2-.2-.4-.2-.7-.2-.2.2-.4.2-.5.5zm1.1 1.5 4.4 4.4-5.8 1.5z"/><path d="m61.9 33.5-2 8.1c-.1.2 0 .5.2.7.1.1.3.2.5.2h.2l8.2-2c.2-.1.4-.2.5-.5.1-.2 0-.5-.2-.7l-6.2-6.1c-.2-.2-.4-.2-.7-.2-.2.2-.4.2-.5.5zm1.1 1.5 4.4 4.4-5.8 1.5z"/><path d="m81.4 15 1.8-1.8c.2-.2.4-.3.7-.3.3 0 .5.1.7.3l4.8 4.8c.4.4.4 1 0 1.3l-1.8 1.7c-.3.3-.3.7 0 1 .1.1.3.2.5.2s.4-.1.5-.2l1.8-1.8c.9-.9.9-2.4 0-3.3l-4.8-4.7c-.4-.4-1-.7-1.6-.7-.6 0-1.2.2-1.7.7l-1.8 1.8c-.3.3-.3.7 0 1 .2.2.6.2.9 0z"/><path d="m69.5 8.2c0-1.7-1.3-3-3-3s-3 1.3-3 3 1.3 3 3 3c1.6 0 3-1.4 3-3zm-4.6 0c0-.9.7-1.6 1.6-1.6s1.6.7 1.6 1.6-.7 1.6-1.6 1.6-1.6-.7-1.6-1.6z"/><path d="m79 33.8c-.4 0-.7.3-.7.7v14.3c0 .6-.5 1-1 1h-50.9c-.6 0-1-.5-1-1v-44.8c0-.6.5-1 1-1h50.8c.6 0 1 .5 1 1v8.6c0 .4.3.7.7.7s.7-.3.7-.7v-8.6c0-1.3-1.1-2.4-2.4-2.4h-50.8c-1.3 0-2.4 1.1-2.4 2.4v44.8c0 1.3 1.1 2.4 2.4 2.4h50.8c1.3 0 2.4-1.1 2.4-2.4v-14.3c.1-.5-.2-.7-.6-.7z"/><path d="m28.2 47.8h47.4c.4 0 .7-.3.7-.7v-9.1c0-.4-.3-.7-.7-.7s-.7.3-.7.7v8.4h-25.5v-.1l-1.8-1c.2-.5.3-1.1.4-1.7h2c1 0 1.8-.8 1.8-1.8v-4.4c0-.5-.2-.9-.5-1.3-.3-.3-.8-.5-1.3-.5h-2.1c-.1-.6-.3-1.1-.5-1.7l1.7-1c.4-.2.7-.6.8-1.1s.1-.9-.2-1.4l-2.2-3.8c-.2-.4-.6-.7-1.1-.8-.3 0-.8 0-1.2.3l-1.8 1c-.4-.4-.8-.8-1.2-1.2l1-1.7c.5-.9.2-2-.7-2.5l-3.8-2.2c-.9-.5-2-.2-2.4.7l-1 1.8c-.5-.2-1.1-.3-1.7-.4v-1.9c0-1-.8-1.8-1.8-1.8h-2.9v-2.9h46v1c0 .4.3.7.7.7s.7-.3.7-.7v-1.7c0-.4-.3-.7-.7-.7h-47.4c-.4 0-.7.3-.7.7v32.7c0 .3.3.8.7.8zm.7-20.8h1c7.1 0 12.8 5.7 12.8 12.8 0 2.2-.6 4.4-1.7 6.4l.2.1h-12.3zm2.9-7.8c.2 0 .4.2.4.4v2.5c0 .3.2.6.6.7.9.2 1.8.4 2.6.7.3.1.7 0 .8-.3l1.3-2.3c.1-.2.4-.3.5-.1l3.8 2.2c.2.1.3.4.2.5l-1.3 2.2c-.2.3-.1.7.2.9.7.6 1.3 1.2 1.9 1.9.2.3.6.3.9.1l2.3-1.3c.1-.1.2-.1.3 0 .1 0 .2.1.2.2l2.2 3.8c.1.1.1.2 0 .3 0 .1-.1.2-.2.2l-2.2 1.3c-.3.2-.4.5-.3.8.3.8.6 1.7.7 2.6.1.3.4.6.7.6h2.6c.1 0 .2 0 .3.1s.1.2.1.3v4.3c0 .2-.2.4-.4.4h-2.5c-.3 0-.6.2-.7.6-.1.9-.4 1.7-.7 2.6-.1.3 0 .7.3.8l.3.2h-4.3c1-2 1.6-4.2 1.6-6.5 0-7.8-6.4-14.2-14.2-14.2-.3 0-.6 0-1 0v-6.5c0-.1 3-.1 3 0z"/><path d="m62.7 8.2c0-1.7-1.3-3-3-3s-3 1.3-3 3 1.3 3 3 3 3-1.4 3-3zm-4.6 0c0-.9.7-1.6 1.6-1.6s1.6.7 1.6 1.6-.7 1.6-1.6 1.6c-.8 0-1.6-.7-1.6-1.6z"/><path d="m76.2 8.2c0-1.7-1.3-3-3-3s-3 1.3-3 3 1.3 3 3 3 3-1.4 3-3zm-4.6 0c0-.9.7-1.6 1.6-1.6s1.6.7 1.6 1.6-.7 1.6-1.6 1.6c-.8 0-1.6-.7-1.6-1.6z"/></g><path d="m101.5 25.3h-2.1v-2.1c0-.4-.3-.7-.7-.7s-.7.3-.7.7v2.1h-2.1c-.4 0-.7.3-.7.7s.3.7.7.7h2.1v2.1c0 .4.3.7.7.7s.7-.3.7-.7v-2.1h2.1c.4 0 .7-.3.7-.7s-.3-.7-.7-.7z" fill="#f18f50"/><path d="m96.7 35h-3.9v-3.9c0-.4-.3-.7-.7-.7h-3.6c-.2 0-.4.1-.5.2s-.2.3-.2.5v3.9h-3.9c-.2 0-.4.1-.5.2-.2.2-.3.4-.3.5v3.6c0 .4.3.7.7.7h3.9v4c0 .4.3.7.7.7h3.7c.4 0 .7-.3.7-.7v-4h3.9c.4 0 .7-.3.7-.7v-3.6c0-.2-.3-.7-.7-.7zm-.7 3.7h-3.9c-.4 0-.7.3-.7.7v4h-2.2v-4c0-.4-.3-.7-.7-.7h-3.9v-2.2h3.9c.2 0 .4-.1.5-.2s.2-.3.2-.5v-3.9h2.2v3.9c0 .4.3.7.7.7h3.9z" fill="#f18f50"/><path d="m28 9h4.2c.4 0 .7-.3.7-.7s-.3-.8-.7-.8h-4.2c-.4 0-.7.3-.7.7s.3.8.7.8z" fill="#181818"/><path d="m54.4 9c.4 0 .7-.3.7-.7s-.3-.7-.7-.7h-19.1c-.4 0-.7.3-.7.7s.3.7.7.7z" fill="#181818"/><path d="m81.4 15 1.8-1.8c.2-.2.4-.3.7-.3.3 0 .5.1.7.3l4.8 4.8c.4.4.4 1 0 1.3l-1.8 1.7c-.3.3-.3.7 0 1 .1.1.3.2.5.2s.4-.1.5-.2l1.8-1.8c.9-.9.9-2.4 0-3.3l-4.8-4.7c-.4-.4-1-.7-1.6-.7-.6 0-1.2.2-1.7.7l-1.8 1.8c-.3.3-.3.7 0 1 .2.2.6.2.9 0z" fill="#181818"/><path d="m78.8 15.5-14.1 14.2c-.5.5-.7 1.1-.7 1.7s.3 1.3.7 1.7l.2.2c.4.4.9.6 1.5.7.1.5.3 1.1.7 1.4l.2.2c.4.4.9.6 1.5.7.1.5.3 1.1.7 1.5l.2.2c.5.5 1.1.7 1.7.7s1.2-.2 1.7-.7l13.8-14.2c.1-.1.2-.3.2-.5 0-.4 0-.4-7.4-7.7-.2-.4-.6-.4-.9-.1zm6.7 7.7-13.7 13.6c-.4.4-1.1.4-1.4 0l-.2-.2c-.3-.3-.4-.6-.2-1 .1-.2 0-.5-.2-.7-.1-.2-.3-.2-.5-.2-.1 0-.1 0-.2 0-.4.1-.8 0-1-.2l-.2-.2c-.3-.3-.3-.6-.2-1 .1-.2 0-.5-.2-.7s-.5-.2-.7-.2c-.4.1-.8 0-1-.2l-.2-.2c-.2-.2-.3-.4-.3-.7s.1-.5.3-.7l13.6-13.6c2.3 2.2 5.2 5 6.3 6.2z" fill="#181818"/><path d="m59.7 9.8c.9 0 1.6-.7 1.6-1.6s-.7-1.6-1.6-1.6-1.6.7-1.6 1.6.8 1.6 1.6 1.6z" fill="#02c54c"/><path d="m66.5 9.8c.9 0 1.6-.7 1.6-1.6s-.7-1.6-1.6-1.6-1.6.7-1.6 1.6.7 1.6 1.6 1.6z" fill="#02c54c"/><path d="m74.8 8.2c0-.9-.7-1.6-1.6-1.6s-1.6.7-1.6 1.6.8 1.6 1.6 1.6c.9 0 1.6-.7 1.6-1.6z" fill="#02c54c"/></svg>