<svg enable-background="new 0 0 68 68.7" viewBox="0 0 68 68.7" xmlns="http://www.w3.org/2000/svg"><path d="m32.9 58.6h2.3c1.1 0 2-.9 2-2v-4h-6.2v4c0 1.1.8 2 1.9 2z" fill="#fde688"/><g fill="#181818"><path d="m63.7 28.6c-1.8 0-3.3 1.5-3.3 3.3v10l-1.4 1.5c-.2-.5-.5-1-.9-1.4h-.1c-1.4-1.3-3.6-1.1-4.8.3l-5.7 7.2c-.5.7-.7 1.5-.7 2.3v6.3h-1c-.6 0-1.2.5-1.2 1.2v6.7c0 .6.5 1.2 1.2 1.2l15.2.1c.6 0 1.2-.5 1.2-1.2v-6.7c0-.6-.5-1.2-1.2-1.2h-1.4v-1.6c0-.5.1-1 .4-1.4l6.5-8.9c.3-.4.4-1 .4-1.5v-12.8c.1-1.8-1.4-3.4-3.2-3.4zm-3.6 36.5-13.5-.1v-5l13.5.1zm4.9-20.4c0 .1 0 .3-.1.4l-6.6 8.9c-.5.8-.7 1.6-.7 2.5v1.6h-8.8v-6.2c0-.4.1-.8.3-1.1l5.6-7.1c.4-.6 1.3-.6 1.8-.1l.1.1c.7.6.7 1.7.1 2.4l-1 1.2c-.4.4-.3 1 .1 1.4s1 .3 1.4-.1l4.7-5.4c.2-.2.3-.5.3-.7v-10.6c0-.7.6-1.3 1.3-1.3s1.3.6 1.3 1.3l-.1 12.8z"/><path d="m22 57.9h-1v-6.2c0-.8-.3-1.6-.8-2.4l-5.6-7.1c-1.2-1.5-3.4-1.6-4.8-.3-.4.4-.7.9-.9 1.4l-1.3-1.5v-10c0-1.8-1.5-3.3-3.3-3.3-1.8-.1-3.3 1.3-3.3 3.2v12.8c0 .5.2 1 .5 1.5l6.4 8.8c.3.4.4.9.4 1.5v1.5h-1.4c-.6 0-1.2.5-1.2 1.2v6.7c-.1.7.3 1.3 1 1.3h15.2c.6 0 1.2-.5 1.2-1.2v-6.7c.1-.6-.4-1.2-1.1-1.2zm-12.6-4.2-6.4-8.8c0-.1 0-.2 0-.4v-12.7c0-.7.6-1.3 1.3-1.3s1.3.6 1.3 1.3v10.3c0 .2.1.6.3.7l4.7 5.4c.4.4 1 .5 1.4.1s.5-1 .1-1.4l-1-1.2c-.6-.7-.5-1.8.1-2.4l.1-.1c.5-.5 1.4-.4 1.8.1l5.6 7.1c.2.3.4.8.4 1.2v6.3h-8.8v-1.6c-.1-.9-.4-1.8-.9-2.6zm11.8 11.2h-13.5v-5l13.5.1z"/><path d="m44.7 52c.3-.3.5-.7.5-1.1v-7c0-.9-.7-1.6-1.6-1.6h-1.9c.4-4 2.1-7.8 4.9-10.8 3.2-3.4 4.9-7.9 5-12.6 0-10.2-8.4-18.5-18.6-18-8.7.5-15.8 7.5-16.6 16.3-.5 5.3 1.4 10.6 4.9 14.4 2.9 3 4.6 6.8 5 10.7h-1.9c-.9 0-1.6.7-1.6 1.6v7c0 .9.7 1.6 1.6 1.6h4.5v2.5h-2.1c-.6 0-1 .5-1 1 0 .6.5 1 1 1h2.1c.3 2 1.9 3.5 3.9 3.5h2.3c2 0 3.6-1.5 3.9-3.5h2.1c.6 0 1-.5 1-1 0-.6-.4-1-1-1h-2.1v-2.5h4.5c.5 0 .9-.2 1.2-.5zm-9.5 6.6h-2.3c-1.1 0-1.9-.9-1.9-2v-4h6.2v4c0 1.1-.9 2-2 2zm-12.3-28.3c-3.3-3.4-4.9-8-4.4-12.8.7-7.8 7.1-14.1 14.8-14.4h.9c8.6 0 15.6 7.3 15.6 16.1 0 4.2-1.5 8.2-4.5 11.2-3.2 3.4-5.1 7.7-5.6 12.2h-4.6v-10.8h.4c.5 0 .9-.4 1-.9l.3-2.2c.9-.2 1.8-.6 2.6-1.1l1.7 1.3c.4.3 1 .2 1.4-.1l1.9-1.9c.4-.4.4-.9.1-1.3l-1.4-1.8c.5-.8.8-1.7 1.1-2.6l2.2-.3c.5-.1.9-.5.9-1v-2.7c0-.5-.4-.9-.9-1l-2.2-.3c-.2-.9-.6-1.8-1.1-2.6l1.3-1.7c.3-.4.3-1-.1-1.4l-1.9-1.9c-.4-.4-.9-.4-1.3-.1l-1.8 1.4c-.8-.5-1.7-.8-2.6-1.1l-.3-2.2c-.1-.5-.5-.9-1-.9h-2.7c-.5 0-.9.4-1 .9l-.3 2.2c-.9.3-1.7.6-2.5 1.1l-1.8-1.4c-.4-.3-1-.3-1.3.1l-1.9 2c-.4.4-.4.9-.1 1.3l1.4 1.8c-.5.8-.8 1.7-1.1 2.6h-2c-.5.1-.9.5-.9 1v2.7c0 .5.4.9.9 1l2.2.3c.2.9.6 1.8 1.1 2.6l-1.4 1.8c-.3.4-.3 1 .1 1.3l1.9 1.9c.4.4.9.4 1.3.1l1.8-1.4c.8.5 1.7.8 2.6 1.1l.3 2.2c.1.5.5.9 1 .9h.4v10.8h-4.7c-.6-4.3-2.6-8.6-5.8-12zm4.3-7.1c-.6-.9-1.1-2-1.3-3.1-.1-.4-.4-.7-.8-.8l-2-.3v-1l2-.3c.4-.1.8-.4.8-.8.2-1.1.7-2.2 1.3-3.2.2-.4.2-.8 0-1.2l-1.1-1.5.7-.7 1.6 1.2c.3.3.9.3 1.2 0 .9-.6 2-1.1 3.1-1.3.4-.1.7-.4.8-.9l.3-2h1l.3 2c.1.4.4.8.8.9 1.1.2 2.2.7 3.1 1.3.4.2.8.2 1.2 0l1.6-1.2.7.7-1.2 1.6c-.3.3-.3.8 0 1.2.6 1 1.1 2 1.3 3.2.1.4.4.7.8.8l2 .3v1l-2 .3c-.4.1-.8.4-.8.8-.2 1.1-.7 2.2-1.3 3.2-.2.4-.2.8 0 1.2l1.2 1.6-.7.7-1.8-1.4c-.3-.3-.8-.3-1.2 0-.9.6-2 1.1-3.1 1.3-.4.1-.7.4-.8.9l-.3 2h-1l-.3-2c-.1-.4-.4-.8-.8-.9-1.1-.2-2.2-.7-3.1-1.3-.4-.2-.8-.2-1.2 0l-1.6 1.2-.6-.7 1.2-1.6c.3-.3.3-.8 0-1.2zm-2.3 27.4v-6.1h18.3v6.1c-10.6 0-7.7 0-18.3 0z"/></g><ellipse cx="34.3" cy="18.4" fill="#fde688" rx="3.8" ry="3.8" transform="matrix(.00459324 -1 1 .00459324 15.6588 52.6115)"/><path d="m34.2 24.4c3.2 0 5.8-2.6 5.8-5.8s-2.6-5.8-5.8-5.8-5.8 2.6-5.8 5.8c.1 3.2 2.6 5.8 5.8 5.8zm.1-9.7c2.1 0 3.8 1.7 3.8 3.8s-1.7 3.8-3.8 3.8-3.8-1.7-3.8-3.8 1.7-3.8 3.8-3.8z" fill="#181818"/><path d="m49.8 19.2c-.1-8.8-7-16-15.6-16.1-.3 0-.6 0-.9 0-7.7.4-14 6.6-14.8 14.4-.4 4.8 1.2 9.4 4.4 12.8 3.2 3.3 5.2 7.6 5.6 12h4.7v-10.8h-.4c-.5 0-.9-.4-1-.9l-.3-2.2c-.9-.3-1.8-.6-2.6-1.1l-1.8 1.4c-.4.3-.9.3-1.3-.1l-1.8-1.8c-.4-.3-.4-.9-.1-1.3l1.4-1.8c-.5-.8-.9-1.7-1.1-2.6l-2.2-.3c-.5-.1-.9-.5-.9-1v-2.7c0-.5.4-.9.9-1l2.2-.2c.3-.9.6-1.8 1.1-2.6l-1.3-1.8c-.3-.4-.3-.9.1-1.3l1.9-2c.3-.4.9-.4 1.3-.1l1.8 1.4c.8-.5 1.6-.8 2.5-1.1l.3-2.2c.1-.5.5-.9 1-.9h2.7c.5 0 .9.4 1 .9l.3 2.2c.9.3 1.8.6 2.6 1.1l1.8-1.4c.4-.3.9-.3 1.3.1l1.9 1.9c.4.4.4 1 .1 1.4l-1.3 1.7c.5.8.9 1.7 1.1 2.6l2.2.3c.5.1.9.5.9 1v2.7c0 .5-.4.9-.9 1l-2.2.3c-.3.9-.6 1.8-1.1 2.6l1.4 1.8c.3.4.3.9-.1 1.3l-1.9 1.9c-.4.3-1 .4-1.4.1l-1.7-1.3c-.8.5-1.7.9-2.6 1.1l-.3 2.2c-.1.5-.5.9-1 .9h-.4v10.8h4.6c.4-4.5 2.3-8.8 5.6-12.2 2.7-2.9 4.2-6.9 4.3-11.1z" fill="#fde688"/><path d="m44.7 52c.3-.3.5-.7.5-1.1v-7c0-.9-.7-1.6-1.6-1.6h-1.9c.4-4 2.1-7.8 4.9-10.8 3.2-3.4 4.9-7.9 5-12.6 0-10.2-8.4-18.5-18.6-18-8.7.5-15.8 7.5-16.6 16.3-.5 5.3 1.4 10.6 4.9 14.4 2.9 3 4.6 6.8 5 10.7h-1.9c-.9 0-1.6.7-1.6 1.6v7c0 .9.7 1.6 1.6 1.6h4.5v2.5h-2.1c-.6 0-1 .5-1 1 0 .6.5 1 1 1h2.1c.3 2 1.9 3.5 3.9 3.5h2.3c2 0 3.6-1.5 3.9-3.5h2.1c.6 0 1-.5 1-1 0-.6-.4-1-1-1h-2.1v-2.5h4.5c.5 0 .9-.2 1.2-.5zm-9.5 6.6h-2.3c-1.1 0-1.9-.9-1.9-2v-4h6.2v4c0 1.1-.9 2-2 2zm-12.3-28.3c-3.3-3.4-4.9-8-4.4-12.8.7-7.8 7.1-14.1 14.8-14.4h.9c8.6 0 15.6 7.3 15.6 16.1 0 4.2-1.5 8.2-4.5 11.2-3.2 3.4-5.1 7.7-5.6 12.2h-4.6v-10.8h.4c.5 0 .9-.4 1-.9l.3-2.2c.9-.2 1.8-.6 2.6-1.1l1.7 1.3c.4.3 1 .2 1.4-.1l1.9-1.9c.4-.4.4-.9.1-1.3l-1.4-1.8c.5-.8.8-1.7 1.1-2.6l2.2-.3c.5-.1.9-.5.9-1v-2.7c0-.5-.4-.9-.9-1l-2.2-.3c-.2-.9-.6-1.8-1.1-2.6l1.3-1.7c.3-.4.3-1-.1-1.4l-1.9-1.9c-.4-.4-.9-.4-1.3-.1l-1.8 1.4c-.8-.5-1.7-.8-2.6-1.1l-.3-2.2c-.1-.5-.5-.9-1-.9h-2.7c-.5 0-.9.4-1 .9l-.3 2.2c-.9.3-1.7.6-2.5 1.1l-1.8-1.4c-.4-.3-1-.3-1.3.1l-1.9 2c-.4.4-.4.9-.1 1.3l1.4 1.8c-.5.8-.8 1.7-1.1 2.6h-2c-.5.1-.9.5-.9 1v2.7c0 .5.4.9.9 1l2.2.3c.2.9.6 1.8 1.1 2.6l-1.4 1.8c-.3.4-.3 1 .1 1.3l1.9 1.9c.4.4.9.4 1.3.1l1.8-1.4c.8.5 1.7.8 2.6 1.1l.3 2.2c.1.5.5.9 1 .9h.4v10.8h-4.7c-.6-4.3-2.6-8.6-5.8-12zm4.3-7.1c-.6-.9-1.1-2-1.3-3.1-.1-.4-.4-.7-.8-.8l-2-.3v-1l2-.3c.4-.1.8-.4.8-.8.2-1.1.7-2.2 1.3-3.2.2-.4.2-.8 0-1.2l-1.1-1.5.7-.7 1.6 1.2c.3.3.9.3 1.2 0 .9-.6 2-1.1 3.1-1.3.4-.1.7-.4.8-.9l.3-2h1l.3 2c.1.4.4.8.8.9 1.1.2 2.2.7 3.1 1.3.4.2.8.2 1.2 0l1.6-1.2.7.7-1.2 1.6c-.3.3-.3.8 0 1.2.6 1 1.1 2 1.3 3.2.1.4.4.7.8.8l2 .3v1l-2 .3c-.4.1-.8.4-.8.8-.2 1.1-.7 2.2-1.3 3.2-.2.4-.2.8 0 1.2l1.2 1.6-.7.7-1.8-1.4c-.3-.3-.8-.3-1.2 0-.9.6-2 1.1-3.1 1.3-.4.1-.7.4-.8.9l-.3 2h-1l-.3-2c-.1-.4-.4-.8-.8-.9-1.1-.2-2.2-.7-3.1-1.3-.4-.2-.8-.2-1.2 0l-1.6 1.2-.6-.7 1.2-1.6c.3-.3.3-.8 0-1.2zm-2.3 27.4v-6.1h18.3v6.1c-10.6 0-7.7 0-18.3 0z" fill="#181818"/><path d="m7.8 60v5h13.5v-5zm11 2.8c-.5 0-.9-.4-.9-.9s.4-.9.9-.9.9.4.9.9-.4.9-.9.9z" fill="#b56ec7"/><path d="m46.7 60v5h13.5v-5zm2.5 2.8c-.5 0-.9-.4-.9-.9s.4-.9.9-.9.9.4.9.9-.4.9-.9.9z" fill="#b56ec7"/><path d="m4.3 30.5c-.7 0-1.3.6-1.3 1.3v12.7.4l6.4 8.8c.5.8.8 1.7.9 2.6v1.6h8.8v-6.3c0-.4-.2-.9-.4-1.2l-5.6-7.1c-.4-.5-1.3-.6-1.8-.1l-.1.1c-.6.6-.7 1.7-.1 2.4l1 1.2c.4.4.3 1-.1 1.4s-1 .3-1.4-.1l-4.7-5.4c-.2-.1-.3-.5-.3-.7v-10.3c0-.7-.6-1.3-1.3-1.3z" fill="#fdd9b6"/><path d="m54.7 43.7-5.6 7.1c-.2.3-.3.7-.3 1.1v6.2h8.8v-1.6c0-.9.2-1.7.7-2.5l6.6-8.9c.1-.1.1-.3.1-.4h-.3l.1-12.8c0-.7-.6-1.3-1.3-1.3s-1.3.6-1.3 1.3v10.6c0 .2-.1.5-.3.7l-4.7 5.4c-.4.4-1 .5-1.4.1s-.5-1-.1-1.4l1-1.2c.6-.7.6-1.8-.1-2.4l-.1-.1c-.5-.5-1.4-.5-1.8.1z" fill="#fdd9b6"/><path d="m24.9 44.5h18.3v6.1h-18.3z" fill="#1976d2"/></svg>