<?xml version="1.0" encoding="utf-8"?>
<!-- Generator: Adobe Illustrator 21.0.2, SVG Export Plug-In . SVG Version: 6.00 Build 0)  -->
<svg version="1.1" id="Layer_1" xmlns="http://www.w3.org/2000/svg" xmlns:xlink="http://www.w3.org/1999/xlink" x="0px" y="0px"
	 viewBox="0 0 68 68.7" style="enable-background:new 0 0 68 68.7;" xml:space="preserve">
<style type="text/css">
	.st0{fill:#FDE688;}
	.st1{fill:#181818;}
	.st2{fill:#B56EC7;}
	.st3{fill:#FDD9B6;}
	.st4{fill:#1976D2;}
</style>
<g id="Layer_1_2_">
	<g id="Layer_1_1_">
		<path class="st0" d="M32.9,58.6h2.3c1.1,0,2-0.9,2-2v-4H31v4C31,57.7,31.8,58.6,32.9,58.6z"/>
		<g>
			<g>
				<g>
					<path class="st1" d="M63.7,28.6c-1.8,0-3.3,1.5-3.3,3.3v10L59,43.4c-0.2-0.5-0.5-1-0.9-1.4H58c-1.4-1.3-3.6-1.1-4.8,0.3
						l-5.7,7.2c-0.5,0.7-0.7,1.5-0.7,2.3v6.3h-1c-0.6,0-1.2,0.5-1.2,1.2V66c0,0.6,0.5,1.2,1.2,1.2L61,67.3c0.6,0,1.2-0.5,1.2-1.2
						v-6.7c0-0.6-0.5-1.2-1.2-1.2h-1.4v-1.6c0-0.5,0.1-1,0.4-1.4l6.5-8.9c0.3-0.4,0.4-1,0.4-1.5V32C67,30.2,65.5,28.6,63.7,28.6z
						 M60.1,65.1L46.6,65v-5l13.5,0.1V65.1z M65,44.7c0,0.1,0,0.3-0.1,0.4L58.3,54c-0.5,0.8-0.7,1.6-0.7,2.5v1.6h-8.8v-6.2
						c0-0.4,0.1-0.8,0.3-1.1l5.6-7.1c0.4-0.6,1.3-0.6,1.8-0.1l0.1,0.1c0.7,0.6,0.7,1.7,0.1,2.4l-1,1.2c-0.4,0.4-0.3,1,0.1,1.4
						c0.4,0.4,1,0.3,1.4-0.1l4.7-5.4c0.2-0.2,0.3-0.5,0.3-0.7V31.9c0-0.7,0.6-1.3,1.3-1.3c0.7,0,1.3,0.6,1.3,1.3l-0.1,12.8H65z"/>
				</g>
			</g>
			<g>
				<g>
					<path class="st1" d="M22,57.9h-1v-6.2c0-0.8-0.3-1.6-0.8-2.4l-5.6-7.1c-1.2-1.5-3.4-1.6-4.8-0.3l0,0c-0.4,0.4-0.7,0.9-0.9,1.4
						l-1.3-1.5v-10c0-1.8-1.5-3.3-3.3-3.3C2.5,28.4,1,29.8,1,31.7v12.8c0,0.5,0.2,1,0.5,1.5l6.4,8.8c0.3,0.4,0.4,0.9,0.4,1.5v1.5
						H6.9c-0.6,0-1.2,0.5-1.2,1.2v6.7C5.6,66.4,6,67,6.7,67h15.2c0.6,0,1.2-0.5,1.2-1.2v-6.7C23.2,58.5,22.7,57.9,22,57.9z
						 M9.4,53.7L3,44.9c0-0.1,0-0.2,0-0.4V31.8c0-0.7,0.6-1.3,1.3-1.3s1.3,0.6,1.3,1.3v10.3c0,0.2,0.1,0.6,0.3,0.7l4.7,5.4
						c0.4,0.4,1,0.5,1.4,0.1s0.5-1,0.1-1.4l-1-1.2c-0.6-0.7-0.5-1.8,0.1-2.4l0.1-0.1c0.5-0.5,1.4-0.4,1.8,0.1l5.6,7.1
						c0.2,0.3,0.4,0.8,0.4,1.2v6.3h-8.8v-1.6C10.2,55.4,9.9,54.5,9.4,53.7z M21.2,64.9H7.7v-5L21.2,60V64.9z"/>
				</g>
			</g>
			<g>
				<g>
					<path class="st1" d="M44.7,52c0.3-0.3,0.5-0.7,0.5-1.1v-7c0-0.9-0.7-1.6-1.6-1.6h-1.9c0.4-4,2.1-7.8,4.9-10.8
						c3.2-3.4,4.9-7.9,5-12.6c0-10.2-8.4-18.5-18.6-18c-8.7,0.5-15.8,7.5-16.6,16.3c-0.5,5.3,1.4,10.6,4.9,14.4
						c2.9,3,4.6,6.8,5,10.7h-1.9c-0.9,0-1.6,0.7-1.6,1.6v7c0,0.9,0.7,1.6,1.6,1.6l0,0h4.5l0,0V55h-2.1c-0.6,0-1,0.5-1,1
						c0,0.6,0.5,1,1,1l0,0h2.1c0.3,2,1.9,3.5,3.9,3.5l0,0h2.3c2,0,3.6-1.5,3.9-3.5h2.1c0.6,0,1-0.5,1-1c0-0.6-0.4-1-1-1H39v-2.5l0,0
						h4.5C44,52.5,44.4,52.3,44.7,52z M35.2,58.6h-2.3c-1.1,0-1.9-0.9-1.9-2v-4h6.2v4C37.2,57.7,36.3,58.6,35.2,58.6z M22.9,30.3
						c-3.3-3.4-4.9-8-4.4-12.8c0.7-7.8,7.1-14.1,14.8-14.4c0.3,0,0.6,0,0.9,0c8.6,0,15.6,7.3,15.6,16.1c0,4.2-1.5,8.2-4.5,11.2
						c-3.2,3.4-5.1,7.7-5.6,12.2h-4.6V31.8h0.4c0.5,0,0.9-0.4,1-0.9l0.3-2.2c0.9-0.2,1.8-0.6,2.6-1.1l1.7,1.3c0.4,0.3,1,0.2,1.4-0.1
						l1.9-1.9c0.4-0.4,0.4-0.9,0.1-1.3l-1.4-1.8c0.5-0.8,0.8-1.7,1.1-2.6l2.2-0.3c0.5-0.1,0.9-0.5,0.9-1v-2.7c0-0.5-0.4-0.9-0.9-1
						l-2.2-0.3c-0.2-0.9-0.6-1.8-1.1-2.6l1.3-1.7c0.3-0.4,0.3-1-0.1-1.4l-1.9-1.9c-0.4-0.4-0.9-0.4-1.3-0.1l-1.8,1.4
						c-0.8-0.5-1.7-0.8-2.6-1.1l-0.3-2.2c-0.1-0.5-0.5-0.9-1-0.9h-2.7c-0.5,0-0.9,0.4-1,0.9l-0.3,2.2c-0.9,0.3-1.7,0.6-2.5,1.1
						l-1.8-1.4c-0.4-0.3-1-0.3-1.3,0.1l-1.9,2c-0.4,0.4-0.4,0.9-0.1,1.3l1.4,1.8c-0.5,0.8-0.8,1.7-1.1,2.6h-2
						c-0.5,0.1-0.9,0.5-0.9,1v2.7c0,0.5,0.4,0.9,0.9,1l2.2,0.3c0.2,0.9,0.6,1.8,1.1,2.6L24,25.4c-0.3,0.4-0.3,1,0.1,1.3l1.9,1.9
						c0.4,0.4,0.9,0.4,1.3,0.1l1.8-1.4c0.8,0.5,1.7,0.8,2.6,1.1l0.3,2.2c0.1,0.5,0.5,0.9,1,0.9h0.4v10.8h-4.7
						C28.1,38,26.1,33.7,22.9,30.3z M27.2,23.2c-0.6-0.9-1.1-2-1.3-3.1c-0.1-0.4-0.4-0.7-0.8-0.8l-2-0.3v-1l2-0.3
						c0.4-0.1,0.8-0.4,0.8-0.8c0.2-1.1,0.7-2.2,1.3-3.2c0.2-0.4,0.2-0.8,0-1.2L26.1,11l0.7-0.7l1.6,1.2c0.3,0.3,0.9,0.3,1.2,0
						c0.9-0.6,2-1.1,3.1-1.3c0.4-0.1,0.7-0.4,0.8-0.9l0.3-2h1l0.3,2c0.1,0.4,0.4,0.8,0.8,0.9c1.1,0.2,2.2,0.7,3.1,1.3
						c0.4,0.2,0.8,0.2,1.2,0l1.6-1.2l0.7,0.7l-1.2,1.6c-0.3,0.3-0.3,0.8,0,1.2c0.6,1,1.1,2,1.3,3.2c0.1,0.4,0.4,0.7,0.8,0.8l2,0.3v1
						l-2,0.3c-0.4,0.1-0.8,0.4-0.8,0.8c-0.2,1.1-0.7,2.2-1.3,3.2c-0.2,0.4-0.2,0.8,0,1.2l1.2,1.6l-0.7,0.7L40,25.5
						c-0.3-0.3-0.8-0.3-1.2,0c-0.9,0.6-2,1.1-3.1,1.3c-0.4,0.1-0.7,0.4-0.8,0.9l-0.3,2h-1l-0.3-2c-0.1-0.4-0.4-0.8-0.8-0.9
						c-1.1-0.2-2.2-0.7-3.1-1.3c-0.4-0.2-0.8-0.2-1.2,0l-1.6,1.2L26,26l1.2-1.6C27.5,24.1,27.5,23.6,27.2,23.2z M24.9,50.6v-6.1
						c5.3,0,12.6,0,18.3,0v6.1C32.6,50.6,35.5,50.6,24.9,50.6z"/>
				</g>
			</g>
			<g>
				<g>
					
						<ellipse transform="matrix(4.593240e-03 -1 1 4.593240e-03 15.6588 52.6115)" class="st0" cx="34.3" cy="18.4" rx="3.8" ry="3.8"/>
				</g>
				<g>
					<path class="st1" d="M34.2,24.4c3.2,0,5.8-2.6,5.8-5.8s-2.6-5.8-5.8-5.8s-5.8,2.6-5.8,5.8C28.5,21.8,31,24.4,34.2,24.4z
						 M34.3,14.7c2.1,0,3.8,1.7,3.8,3.8s-1.7,3.8-3.8,3.8s-3.8-1.7-3.8-3.8S32.2,14.7,34.3,14.7z"/>
				</g>
			</g>
			<g>
				<path class="st0" d="M49.8,19.2c-0.1-8.8-7-16-15.6-16.1c-0.3,0-0.6,0-0.9,0c-7.7,0.4-14,6.6-14.8,14.4
					c-0.4,4.8,1.2,9.4,4.4,12.8c3.2,3.3,5.2,7.6,5.6,12h4.7V31.5h-0.4c-0.5,0-0.9-0.4-1-0.9l-0.3-2.2c-0.9-0.3-1.8-0.6-2.6-1.1
					l-1.8,1.4c-0.4,0.3-0.9,0.3-1.3-0.1L24,26.8c-0.4-0.3-0.4-0.9-0.1-1.3l1.4-1.8c-0.5-0.8-0.9-1.7-1.1-2.6L22,20.8
					c-0.5-0.1-0.9-0.5-0.9-1v-2.7c0-0.5,0.4-0.9,0.9-1l2.2-0.2c0.3-0.9,0.6-1.8,1.1-2.6L24,11.5c-0.3-0.4-0.3-0.9,0.1-1.3l1.9-2
					c0.3-0.4,0.9-0.4,1.3-0.1l1.8,1.4c0.8-0.5,1.6-0.8,2.5-1.1l0.3-2.2c0.1-0.5,0.5-0.9,1-0.9h2.7c0.5,0,0.9,0.4,1,0.9l0.3,2.2
					c0.9,0.3,1.8,0.6,2.6,1.1l1.8-1.4c0.4-0.3,0.9-0.3,1.3,0.1l1.9,1.9c0.4,0.4,0.4,1,0.1,1.4l-1.3,1.7c0.5,0.8,0.9,1.7,1.1,2.6
					l2.2,0.3c0.5,0.1,0.9,0.5,0.9,1v2.7c0,0.5-0.4,0.9-0.9,1l-2.2,0.3c-0.3,0.9-0.6,1.8-1.1,2.6l1.4,1.8c0.3,0.4,0.3,0.9-0.1,1.3
					l-1.9,1.9c-0.4,0.3-1,0.4-1.4,0.1l-1.7-1.3c-0.8,0.5-1.7,0.9-2.6,1.1l-0.3,2.2c-0.1,0.5-0.5,0.9-1,0.9h-0.4v10.8h4.6
					c0.4-4.5,2.3-8.8,5.6-12.2C48.2,27.4,49.7,23.4,49.8,19.2z"/>
			</g>
			<g>
				<g>
					<path class="st1" d="M44.7,52c0.3-0.3,0.5-0.7,0.5-1.1v-7c0-0.9-0.7-1.6-1.6-1.6h-1.9c0.4-4,2.1-7.8,4.9-10.8
						c3.2-3.4,4.9-7.9,5-12.6c0-10.2-8.4-18.5-18.6-18c-8.7,0.5-15.8,7.5-16.6,16.3c-0.5,5.3,1.4,10.6,4.9,14.4
						c2.9,3,4.6,6.8,5,10.7h-1.9c-0.9,0-1.6,0.7-1.6,1.6v7c0,0.9,0.7,1.6,1.6,1.6l0,0h4.5l0,0V55h-2.1c-0.6,0-1,0.5-1,1
						c0,0.6,0.5,1,1,1l0,0h2.1c0.3,2,1.9,3.5,3.9,3.5l0,0h2.3c2,0,3.6-1.5,3.9-3.5h2.1c0.6,0,1-0.5,1-1c0-0.6-0.4-1-1-1H39v-2.5l0,0
						h4.5C44,52.5,44.4,52.3,44.7,52z M35.2,58.6h-2.3c-1.1,0-1.9-0.9-1.9-2v-4h6.2v4C37.2,57.7,36.3,58.6,35.2,58.6z M22.9,30.3
						c-3.3-3.4-4.9-8-4.4-12.8c0.7-7.8,7.1-14.1,14.8-14.4c0.3,0,0.6,0,0.9,0c8.6,0,15.6,7.3,15.6,16.1c0,4.2-1.5,8.2-4.5,11.2
						c-3.2,3.4-5.1,7.7-5.6,12.2h-4.6V31.8h0.4c0.5,0,0.9-0.4,1-0.9l0.3-2.2c0.9-0.2,1.8-0.6,2.6-1.1l1.7,1.3c0.4,0.3,1,0.2,1.4-0.1
						l1.9-1.9c0.4-0.4,0.4-0.9,0.1-1.3l-1.4-1.8c0.5-0.8,0.8-1.7,1.1-2.6l2.2-0.3c0.5-0.1,0.9-0.5,0.9-1v-2.7c0-0.5-0.4-0.9-0.9-1
						l-2.2-0.3c-0.2-0.9-0.6-1.8-1.1-2.6l1.3-1.7c0.3-0.4,0.3-1-0.1-1.4l-1.9-1.9c-0.4-0.4-0.9-0.4-1.3-0.1l-1.8,1.4
						c-0.8-0.5-1.7-0.8-2.6-1.1l-0.3-2.2c-0.1-0.5-0.5-0.9-1-0.9h-2.7c-0.5,0-0.9,0.4-1,0.9l-0.3,2.2c-0.9,0.3-1.7,0.6-2.5,1.1
						l-1.8-1.4c-0.4-0.3-1-0.3-1.3,0.1l-1.9,2c-0.4,0.4-0.4,0.9-0.1,1.3l1.4,1.8c-0.5,0.8-0.8,1.7-1.1,2.6h-2
						c-0.5,0.1-0.9,0.5-0.9,1v2.7c0,0.5,0.4,0.9,0.9,1l2.2,0.3c0.2,0.9,0.6,1.8,1.1,2.6L24,25.4c-0.3,0.4-0.3,1,0.1,1.3l1.9,1.9
						c0.4,0.4,0.9,0.4,1.3,0.1l1.8-1.4c0.8,0.5,1.7,0.8,2.6,1.1l0.3,2.2c0.1,0.5,0.5,0.9,1,0.9h0.4v10.8h-4.7
						C28.1,38,26.1,33.7,22.9,30.3z M27.2,23.2c-0.6-0.9-1.1-2-1.3-3.1c-0.1-0.4-0.4-0.7-0.8-0.8l-2-0.3v-1l2-0.3
						c0.4-0.1,0.8-0.4,0.8-0.8c0.2-1.1,0.7-2.2,1.3-3.2c0.2-0.4,0.2-0.8,0-1.2L26.1,11l0.7-0.7l1.6,1.2c0.3,0.3,0.9,0.3,1.2,0
						c0.9-0.6,2-1.1,3.1-1.3c0.4-0.1,0.7-0.4,0.8-0.9l0.3-2h1l0.3,2c0.1,0.4,0.4,0.8,0.8,0.9c1.1,0.2,2.2,0.7,3.1,1.3
						c0.4,0.2,0.8,0.2,1.2,0l1.6-1.2l0.7,0.7l-1.2,1.6c-0.3,0.3-0.3,0.8,0,1.2c0.6,1,1.1,2,1.3,3.2c0.1,0.4,0.4,0.7,0.8,0.8l2,0.3v1
						l-2,0.3c-0.4,0.1-0.8,0.4-0.8,0.8c-0.2,1.1-0.7,2.2-1.3,3.2c-0.2,0.4-0.2,0.8,0,1.2l1.2,1.6l-0.7,0.7L40,25.5
						c-0.3-0.3-0.8-0.3-1.2,0c-0.9,0.6-2,1.1-3.1,1.3c-0.4,0.1-0.7,0.4-0.8,0.9l-0.3,2h-1l-0.3-2c-0.1-0.4-0.4-0.8-0.8-0.9
						c-1.1-0.2-2.2-0.7-3.1-1.3c-0.4-0.2-0.8-0.2-1.2,0l-1.6,1.2L26,26l1.2-1.6C27.5,24.1,27.5,23.6,27.2,23.2z M24.9,50.6v-6.1
						c5.3,0,12.6,0,18.3,0v6.1C32.6,50.6,35.5,50.6,24.9,50.6z"/>
				</g>
			</g>
		</g>
	</g>
	<g id="Layer_3">
	</g>
	<g id="Layer_2">
		<path class="st2" d="M7.8,60v5h13.5v-5H7.8z M18.8,62.8c-0.5,0-0.9-0.4-0.9-0.9s0.4-0.9,0.9-0.9s0.9,0.4,0.9,0.9
			S19.3,62.8,18.8,62.8z"/>
		<path class="st2" d="M46.7,60v5h13.5v-5H46.7z M49.2,62.8c-0.5,0-0.9-0.4-0.9-0.9s0.4-0.9,0.9-0.9s0.9,0.4,0.9,0.9
			S49.7,62.8,49.2,62.8z"/>
	</g>
	<g id="Layer_5">
	</g>
</g>
<g id="Layer_2_1_">
</g>
<path class="st3" d="M4.3,30.5c-0.7,0-1.3,0.6-1.3,1.3v12.7c0,0.2,0,0.3,0,0.4l6.4,8.8c0.5,0.8,0.8,1.7,0.9,2.6v1.6h8.8v-6.3
	c0-0.4-0.2-0.9-0.4-1.2l-5.6-7.1c-0.4-0.5-1.3-0.6-1.8-0.1l-0.1,0.1c-0.6,0.6-0.7,1.7-0.1,2.4l1,1.2c0.4,0.4,0.3,1-0.1,1.4
	c-0.4,0.4-1,0.3-1.4-0.1l-4.7-5.4c-0.2-0.1-0.3-0.5-0.3-0.7V31.8C5.6,31.1,5,30.5,4.3,30.5z"/>
<path class="st3" d="M54.7,43.7l-5.6,7.1c-0.2,0.3-0.3,0.7-0.3,1.1v6.2h8.8v-1.6c0-0.9,0.2-1.7,0.7-2.5l6.6-8.9
	C65,45,65,44.8,65,44.7h-0.3l0.1-12.8c0-0.7-0.6-1.3-1.3-1.3s-1.3,0.6-1.3,1.3v10.6c0,0.2-0.1,0.5-0.3,0.7l-4.7,5.4
	c-0.4,0.4-1,0.5-1.4,0.1s-0.5-1-0.1-1.4l1-1.2c0.6-0.7,0.6-1.8-0.1-2.4l-0.1-0.1C56,43.1,55.1,43.1,54.7,43.7z"/>
<rect x="24.9" y="44.5" class="st4" width="18.3" height="6.1"/>
</svg>
